<svg xmlns="http://www.w3.org/2000/svg" xml:space="preserve" width="814.8" height="153.6"
    style="shape-rendering:geometricPrecision;text-rendering:geometricPrecision;image-rendering:optimizeQuality;fill-rule:evenodd;clip-rule:evenodd"
    viewBox="0 0 24536.5 4624.2">
    <defs>
        <style>
            .fil0 {
                fill: white;
                fill-rule: nonzero
            }
        </style>
    </defs>
    <g id="Layer_x0020_1">
        <g id="_2618433759328">
            <path class="fil0"
                d="M19997 519c69-24 116-46 143-64 27-19 40-31 40-37-1-11-29-28-82-50l-26-8-24-2c-21 0-40 4-56 14-16 9-48 34-95 74l-55 73c-15 21-23 31-24 30 2 2 6 3 11 3l4-1 83-16 54-9c10 0 19-3 27-7zm-956-413c0-20 5-43 13-68 9-25 18-38 29-38 8 0 16 12 24 37l81 277 54 159c34 71 60 110 79 118l-1-1 6-1 41 5 30 1 40 1c24-6 48-14 72-27 23-12 43-35 60-70 6-13 14-20 24-20 5 0 15 5 29 16l21 18 24 17c11 7 29 12 54 14 7 0 13-2 17-7l43-50 41-52c96-133 183-200 263-200 72 0 125 32 159 97 3 5 5 14 5 26 0 77-26 135-78 175l-30 22c-37 26-61 39-73 39l3-3-4 3-9 8c-7 4-11 6-15 6s-9-2-13-5c-7-8-14-13-18-15 6 1 9 4 9 7 0 9-13 20-40 33l-15 6-2-1 9-3 31-5 8-1-12 4-24 7-34 12-6-3-87 19-30 5v-2l4-4 1 2c0 4-7 5-21 5-32 0-48-3-48-8l3-2-7 4-6 3-8 2c7 0 13-2 16-5l-12-1h-7l-5 2c0 2 2 4 4 6h-14c-6 0-8-2-8-6l1-2 7 2 2-1-38-2-9-1-65-37-19-2c-12 0-28 10-48 30l-24 25c-8 8-15 14-22 17-20 8-43 14-69 20l-24 2-26 1c-32 0-59-5-81-15 11 0 17-1 18-3l1-4-1-2-7 2-7 6 2-1c0-3-1-5-4-6l-23-6-7-1 20 14-31-26c-11-10-22-14-31-14-8 0-24 17-48 53-23 35-46 67-69 95-23 29-40 52-51 69a86 86 0 0 0-17 42c0 31 39 46 116 46l51-2 154-20 57-5c131-18 228-35 292-50 74-18 131-27 169-29 38-1 91-10 158-26l135-33 68-12 39-9c61-17 97-25 109-25 32 0 47 11 47 33 0 15-6 32-19 52s-26 33-39 39-47 16-102 30c-55 13-147 29-276 47-129 19-220 34-272 47-53 13-91 20-115 24l-134 30-42 7-110 6-175 19-36 1c-100 0-150-31-150-94 0-89 52-192 156-308l40-45c15-22 22-38 22-48 0-13-1-24-4-35l-32-81-59-184c-28-73-44-136-48-188zm5065 2715c8 5 22 8 42 8 36 0 73-7 112-22 40-15 59-32 59-51 0-23-25-60-76-111-40-37-79-56-115-56-23 0-45 13-66 38-20 25-35 45-44 60s-14 29-14 41c1 13 14 31 39 54s46 36 63 39zm-141-1125c11-4 20-6 27-6 22 0 47 9 77 26s52 33 65 48c33 36 50 64 50 85 0 33-10 60-30 83l-10 18-9 19-11 19c-13 22-26 34-39 34-8 0-16-4-24-11-26-22-45-35-56-40l-88-33c-20-6-30-23-30-50 0-36 16-82 48-138l30-54zm-258-356c-10 0-15-13-15-38 0-21 5-51 15-92 8-17 20-28 35-33l25-10 50-17 201-102 57-27 112-51 114-59c96-60 164-91 206-91 20 0 30 11 30 33 0 14-4 29-12 45l-11 20c-11 26-28 47-52 63-23 16-64 36-120 60l-173 83-125 47-95 51-223 114-19 4zm-141-428c26-15 46-29 59-42l55-50c8-8 13-18 13-28 0-5-2-12-6-21l-12-17c-9-13-25-20-46-20-52 0-102 28-151 85l-40 48-21 21-30 33c-24 26-36 46-34 60 0 4 2 7 7 7 16 0 73-20 172-60l32-16h2zm-212 387c5-4 9-7 14-7 18 0 33 33 44 97l7 37 19 93 47 406 22 147 15 146 8 96 34 287 28 190 17 95c27 139 73 237 136 294 64 57 148 86 255 86 136 0 264-38 381-114 38-24 57-55 59-94l-1-18c-18-105-38-165-62-180l-15 30-13 32-14 31c-20 35-47 65-83 89-35 24-75 36-120 36-72 0-128-25-169-74-41-50-61-112-61-188 0-35 6-79 20-132a568 568 0 0 1 124-267c43-56 83-84 121-84 83 0 162 65 237 194a878 878 0 0 1 127 366l2 67c-2 44-9 86-19 125l-39 131c-27 74-65 131-114 171-49 39-113 70-192 91s-150 32-213 32c-235 0-377-129-429-386l-56-326-8-59-46-438-85-588-31-132c-6-22-10-44-10-67 0-65 21-137 63-215zm-276-350c0-17 7-25 22-25 14 0 39 10 77 30l16 7 21 6 42 11 21 2c4 0 7-2 10-5l7-14 5-16 3-11c47-89 91-156 130-204 40-48 81-84 121-110 41-25 77-38 107-38 35 0 64 11 86 35 22 23 33 53 33 90 0 110-50 207-149 291a568 568 0 0 1-341 139c-20 0-50-5-90-15l-28-8-52-23c-23-8-38-12-42-12-13 1-26 8-40 21l-16 14-20 21-6 18c-10 39-24 58-42 58-12 0-18-15-18-46 0-65 39-134 117-207 8-8 14-11 20-11 2 0 4 0 6 2zm-229 1914c-41-12-83-19-126-19-104 3-205 46-306 129l-129 112-144 115-41 28c-29 20-47 38-53 54l9-1 259-1 125-20c90-16 181-41 274-74 92-33 168-73 227-120l36-29c19-17 28-33 28-47 0-6-3-13-9-22-33-34-55-55-69-63l-39-25-42-17zm-922-1099c17-26 29-42 37-49 47-47 79-76 95-87l47-41c14-10 52-17 114-20l34-2 47-4 24-1 25 1 47 4 65 13 88 25 36 7 81 8c10 2 19 5 26 9s11 14 11 29c0 8-3 22-10 44-9 29-19 48-30 58s-47 36-109 78a1684 1684 0 0 1-310 169c-21 7-43 11-66 11s-42 3-57 8c-6 3-13 5-23 5-23 0-35-9-35-26 0-12 25-32 74-59l130-66 69-37 90-48c37-21 56-37 58-50a698 698 0 0 0-356-11c-39 12-75 35-110 68l-47 45-24 19c-7 5-13 8-19 8s-9-14-9-41c0-16 2-38 7-67zm-1519 2021 10-8c3-3 6-4 10-4 7 0 12 4 14 11l3-1 8 2 25 11 35 18h4l37 19 38 25c36 31 55 58 55 80 0 25-15 58-44 100-29 41-53 62-72 62-14 0-43-11-89-32l-19-8c-67-24-101-48-101-70 0-33 17-83 51-148 17-33 29-52 35-57zm-230 739c4-26 26-46 65-60l72-24 146-63 51-20 52-18 51-19 48-18 46-20 162-71 132-64c38-18 66-27 84-27 15 0 23 13 23 38 0 16-1 29-4 39l-7 28c-4 21-11 36-22 43l-17 10-25 7-73 25-238 103-77 27a4110 4110 0 0 0-332 138l-70 23-45 22-8 1c-12-2-18-10-18-23l10-50-2-11-4-16zm-666-2663c13-52 73-109 181-172l26-12 23-8 25-4c58 2 162 15 309 39l81 19 37 12c26 8 38 23 38 46l-3 20-12 38c-10 30-30 51-58 65l-28 19-50 33-120 74-143 65c-20 9-43 15-68 18l-29-4-28-2c-10 0-20 2-30 6-11 4-21 6-29 6-23 0-34-8-34-22 1-13 11-25 28-34l99-51 135-61 126-66c27-16 41-25 41-29 0-14-62-25-186-33l-103-4c-18 0-29 1-32 4l-6 4-35 17-26 15-25 18-81 74c-7 4-12 6-17 6-6 0-9-6-9-18v-22l1-18 2-19v-19zm-813 1984 7 3c4 0 6-4 6-12l2-12c2-4 6-6 11-6l13 2 31 10c88 27 184 40 288 40 149 0 284-17 403-52s214-77 285-129c72-51 137-121 195-209 59-89 109-193 149-315 4-7 7-25 10-52 0-6-3-10-8-11-5-2-18-3-39-3-67-9-101-47-101-114 0-16 3-32 7-49l4-27c0-56 13-84 38-84l12 2 87 24h24l11-1 26-3c66-10 123-42 172-98s77-115 83-178c6-62 13-103 20-122 6-19 16-28 27-28 14 0 26 19 38 57 29 93 48 170 57 229l19 133 22 115 36 134c70 199 195 298 373 298 62 0 128-12 195-36s119-57 155-101l84-109c28-36 49-54 61-54 14 0 34 14 60 41 27 26 46 43 58 49 30 17 83 36 160 56l57 17 23 3c28 0 59-15 92-44l99-94 295-238 64-55c148-132 276-203 385-211l33-2a405 405 0 0 1 278 118c31 35 46 74 46 119 0 77-25 161-77 253a672 672 0 0 1-173 211c-65 49-163 94-296 134-156 57-323 86-500 86l-95-3h-34l-103-11-48-11h-13c-15 0-26 7-33 19l-19 36-44 100-57 113-15 38-25 87c-32 112-62 168-88 168-7 0-10-5-10-14l-1-27 5-41c34-141 64-243 92-305l47-101c24-48 37-79 37-93 0-8-6-13-18-16l-89-39c-39-24-65-41-78-52s-23-24-30-38c-5-9-11-13-18-13-6 0-15 8-26 22l-12 17-24 45c-39 68-100 122-182 164-83 42-170 62-263 62-111 0-206-40-284-122a658 658 0 0 1-159-344l-25-133-16-96c-7-64-15-103-26-117l-59 104c-31 54-83 97-157 131l-25 11c-16 6-26 26-32 59l-10 84a945 945 0 0 1-95 296l-67 142c-21 44-48 87-79 126l-64 65a863 863 0 0 1-203 148c-68 34-142 51-224 51-20 0-71-4-155-13l-187-21c-57-7-114-20-170-38l-118-26-71-11c-33-5-51-17-53-37 0-9 3-16 9-21 6-6 10-12 10-18l-3-12zM18244 3060c29-46 71-90 127-131 55-41 101-61 140-61 41 0 74 16 100 47l23 32c3 4 4 9 4 14 0 38-15 69-47 95-4 3-5 4-3 4-11 0-25-9-45-29-19-19-33-30-43-33l-22-6-10-1c-7 0-16 2-27 6-72 33-108 63-108 88 0 10 6 20 20 30l53 40c41 27 89 41 145 41 33 0 77-7 132-22 55-14 92-22 110-22 20 0 31 9 31 25 0 27-16 49-49 65l-19 8-29 11-34 12-215 55c-25 8-61 26-109 53-47 27-82 40-106 40-9 0-16-2-19-6-4-4-6-13-6-25 0-18 5-37 14-55 9-19 18-29 28-30l41-12 39-16c-10 1-29-12-57-37l-47-53c-16-18-25-46-25-82 0-19 5-34 13-45zm-6 528c37-2 98-21 184-54l59-22 216-76 93-32c63-25 107-37 130-37 25 0 37 10 37 30 0 67-40 106-119 119-78 13-185 48-322 103l-78 28-195 67-18 3c-14 0-21-15-21-44 0-17 3-34 10-51 7-18 15-29 24-34zm-75-2745c9-10 17-14 25-14 18 0 28 35 28 106l-1 26c2 34 7 72 15 115l26 121 53 268 97 422 51 254c24 123 36 234 36 333l-2 16c-8 69-15 119-21 150s-17 69-33 115l-6 20-10 19c-5 9-11 14-17 14-7 0-10-10-10-30l2-112-7-113-20-125-10-104c-11-68-21-114-31-138-12-28-24-69-35-125l-23-129c-5-53-16-109-32-168l-78-404-23-107c-10-44-15-91-15-139 0-43 2-86 7-129l14-56c6-44 13-73 20-86zm-1116 1182c5-8 13-13 23-13 27 0 83 32 166 96 30 23 45 48 45 75 0 20-12 52-35 97-24 45-46 67-65 67-23-2-45-9-67-21l-44-25-32-16-33-19a61 61 0 0 1-27-44c0-8 2-20 7-36l11-39c4-22 9-38 14-46l17-44 20-32zm-241-487c28-33 45-50 51-50 4 0 5 6 5 18l-3 31-11 47-5 22c0 11 16 20 46 25l18 2c16 0 37-7 65-21 27-14 44-27 48-38l9-30-4-49 6-61v-17l3-15 5-9c2-6 5-12 11-18 5-6 9-9 12-9h9c25 0 38 24 38 73l-4 78c0 20 13 30 39 30 49 0 85-8 109-26 9-8 16-17 19-27l1-10-7-41-6-33c-4-18-6-41-6-69 0-25 5-45 14-60s19-23 31-23c11 0 20 13 27 39 14 85 21 146 21 183 0 95-33 156-100 183l-45 16c-26 13-54 19-85 19l-46-8c-12 2-52 29-120 82-19 11-43 17-72 17-76 0-114-43-114-130 0-48 14-88 41-121zm1040 1731c11-23 17-49 17-75 0-38-10-86-30-143l-41-119c-44-148-100-272-169-372l-3-43 1-31 13-62c9-67 21-100 37-100 9 0 22 13 38 40s27 48 32 63c20 47 41 92 63 135l40 85 20 50c50 121 76 234 79 339l3 76 1 37c0 98-17 185-52 261-34 75-90 150-168 225a913 913 0 0 1-316 170l1-2 7-9 1-1v1l-4-1-10 3-16 2 6 8 1 1c-83 22-165 32-246 32-108 0-213-21-314-63a494 494 0 0 1-222-166c-47-68-70-160-70-275 2-103 32-236 89-400l12-30 12-30 19-62 6-16 10-22c7-11 13-17 20-17 8 0 14 7 19 21 6 14 9 26 9 38 0 25-8 61-23 106-16 45-26 80-31 106-5 25-13 52-23 82s-15 62-15 96c0 61 18 119 54 174 36 54 101 104 194 148s192 66 296 65c118 0 223-21 312-62l58-25 64-34c46-24 90-56 134-96 44-39 72-75 85-108zm-1382-2089c11-25 35-46 74-62l63-27 85-50 42-24 145-76 223-109 39-18 145-72 60-34c15-6 26-9 34-9 16 0 24 9 24 27l-1 12c-6 48-15 80-26 93-10 14-29 29-57 44l-418 197-99 49-207 114-106 54-5 1c-13 0-19-24-19-73l1-10 3-27z" />
        </g>
        <g id="_2618433758320">
            <path class="fil0"
                d="m15762 618 77-24c23-8 42-20 58-34l34-32c15-11 23-22 23-33 0-14-10-30-30-49-20-18-43-28-71-28-40 0-77 15-111 44a662 662 0 0 0-127 129l-10 12c-16 18-26 32-29 41l39 2c31 0 61-3 92-8 31-6 49-12 55-20zm-324 320c7-14 14-20 20-20 15 0 31 34 47 104l8 50 3 142c2 50 18 124 46 222 29 97 46 159 51 186l8 46 7 45 123 532c68 306 102 571 102 796l-2 60-8 86-15 51-8 26-3 15-17 46-13 16c-6 6-10 9-12 9l-2-2 4-94c0-111-11-227-32-346l-25-141-188-918-49-204-40-148c-8-28-15-81-23-157l-1-34-13-80c-4-18-5-35-4-49 0-11 2-19 5-25-5-4-7-14-7-29 0-24 4-44 11-60 8-16 12-29 14-40l5-27 2-30 6-28zm-189-240c13-8 39-32 79-72s65-60 73-60c13 0 38 15 77 46l14 11 8 2c11 0 22-10 32-30 17-29 50-80 101-152 90-119 178-178 264-178 38 0 70 15 98 46 27 31 41 70 41 118-4 106-51 194-141 263a520 520 0 0 1-326 104c-66 0-121-16-164-47a74 74 0 0 0-44-17c-9 0-19 4-29 13l-56 46-20 25-12 57c-4 11-11 18-20 23l-19 6c-15 0-23-12-23-37l1-10 3-32c6-24 20-56 43-97l20-28zm-942-257c68-117 176-175 326-175 43 0 86 5 127 15l149 38 28 5 24 4c33 3 50 16 50 40 0 56-23 100-68 134l-27 20c-41 32-103 69-186 114l-69 28c-4 3-12 6-22 8l-82 36c-18 7-35 11-49 11l-33-3c-18 0-37 7-56 22-34 15-58 23-73 23-12 0-19-3-19-10 0-13 14-30 43-51l112-73c38-26 77-47 117-63l130-56 15-7c43-19 65-34 65-46 0-2-5-4-14-8l-76-22-13-2-2 1c-7-7-25-10-55-10l-25 1c-76 5-124 10-144 16-21 7-41 17-61 31l-75 61c-13 13-23 19-31 19-7 0-11-5-11-16l3-69 2-16zm-813 1218c25-39 73-73 144-104l234-110 114-49 322-156c60-34 105-51 135-51 20 0 29 11 29 32l-1 13-6 47c-5 37-29 63-71 77l-67 22-124 57-43 18c-29 12-67 32-115 59l-40 16-28 12-145 74-106 42-81 40-66 41c-28 17-52 26-73 26-4 0-8-3-10-8a361 361 0 0 1-2-98zm-255 218 7-1c25 0 64 51 118 152l57 95c22 38 46 98 73 179 16 42 24 98 24 170 0 90-15 192-43 308-16 31-27 46-35 46-7 0-11-16-11-48l1-13 13-134c0-125-30-245-89-360-38-68-85-142-141-223-8-12-12-37-12-76 0-60 13-92 38-95zm-650 1296 8 1c39 0 88-26 145-77 57-52 85-92 85-120 0-46-19-99-58-159-38-59-76-89-114-89-21 0-45 12-74 34s-73 67-133 133c-59 66-89 109-89 128 0 21 37 50 111 88l119 61zm-358 981c19-39 93-75 221-106 34-8 95-32 184-71l211-83 98-41 40-19c81-44 138-66 171-66 19 0 29 12 29 38l-3 22-3 26c-6 40-30 66-71 78l-64 19-82 34-84 34-166 70-101 42-267 98-64 29c-15 7-27 10-38 10s-17-5-17-16l-1-62c0-19 2-31 7-36zm5-2276c6-4 13-6 21-6 26 2 62 15 108 38 41 24 68 36 79 36 8 0 16-4 23-12l16-23 76-138c10-16 22-24 38-24 13 0 28 5 43 16s30 20 43 28c25 16 47 32 66 49 19 16 29 36 29 60 0 27-6 47-17 58l-27 20-12 13-13 20c-20 31-40 47-60 47-11 0-27-7-49-22-22-14-35-22-40-23l-22-10-22-16c-18-13-33-21-44-22 2 1 3 3 3 6 0 14-14 43-44 87a997 997 0 0 0-43 66c-21 29-42 43-62 43-11 0-33-8-64-23-53-19-87-33-102-42-15-10-22-21-22-36 0-8 3-17 8-24l20-42c25-61 49-102 70-124zm-672 1971c-2-3-3-6-3-10 0-7 4-14 12-20 7-6 16-9 26-9 3 0 9 2 15 6l22 18c7 5 11 11 13 18l12-1c23 0 47 16 74 50 26 33 39 62 39 85l-1 12-8 25c-6 12-17 23-31 33-14 11-28 27-43 49s-29 32-41 32c-9 0-18-4-27-11-8-8-24-18-47-29-70-25-105-52-105-80l6-24 11-24 11-23 12-21 18-28 33-45 2-3zm-785-2119c4-40 74-84 213-133l14-5 129-56 651-319c45-31 75-47 91-47 8 0 13 4 15 10 2 7 3 16 3 28 0 66-19 109-57 129l-570 279c-162 83-286 139-372 169l-23 11-68 40-10 2c-14 0-21-22-21-67 0-18 2-32 5-41zm-505-184c6-3 11-4 17-4 8 0 23 6 45 19l27 25 61 54c31 28 46 57 46 86 0 17-7 36-22 58-11 4-26 19-44 45-19 27-31 42-36 47-6 5-11 7-17 7-7 2-24-6-50-24l-51-33-37-27c-27-21-40-40-40-58 0-14 14-49 42-103 28-55 47-85 59-92zm-160 195c27 2 41 11 41 29 0 23-23 62-70 117l-37 48a59 59 0 0 1-47 22c-21 0-45-9-72-29-28-20-58-40-90-60-19-10-29-25-29-43-1-16 9-40 30-72 21-31 36-56 45-73s18-29 25-36 15-10 23-10c18 2 36 10 53 24l63 49c25 21 47 32 65 34zm-259 1268 22 1c106 0 211-17 315-52 5-1 13-4 22-10l32-18 30-20c7-6 10-10 10-13l-1-21-48-243c0 10-29 31-85 62l-141 73-67 45-41 28-41 29-36 32-43 46c-16 21-28 39-35 53 0 3 16 4 47 4 32 0 52 2 60 4zm5110-1852 1 18c0 30-17 63-51 99l-21 27-12 14-12 11c-7 7-10 15-10 24l1 6 17 82 24 118 183 763c9 33 31 134 66 303 19 108 28 184 28 225l-10 137 3 57-3 23-6 15-14 40c-11 50-25 90-43 119l-46 72-15 18-8 8-9 9c-15 16-34 28-54 35l-27 7-30 11 6 2 14 4h6l-35 9c-59 19-96 29-110 29-75 0-125-9-150-27l5-1 9-6 3-1-16-5-29-5-31-6-19-3c-56-28-89-45-96-51l-78-74c-8-8-15-12-22-12l-17 6-20 12-20 9-89 46-133 57c-121 55-259 98-415 130s-313 48-472 48c-135 0-265-14-389-41l-135-26-141-52-20-3c-19 0-44 9-73 25-90 45-156 75-198 91-41 16-84 24-127 24-65 0-144-43-235-129l-57-59c-12-14-22-21-28-21-9 0-23 10-42 29l-65 63c-58 52-138 92-241 119l-133 33-28 6-76 11c-5 9-25 16-62 21l-40 3-25-1-8 1-20 4-21 2c-8 0-14-2-18-6-8 8-27 11-55 11-32 0-62-4-91-12l-117-19c-211-57-342-182-392-375l-15-76-33-113-11-67-8-19-4 1-28 31-54 72a321 321 0 0 1-169 123c-119 28-222 42-308 42-47 0-83-5-106-15a53 53 0 0 1-36-52c0-20 6-45 18-74l24-58 68-147 31-49 69-85c71-80 165-152 282-214 77-37 115-66 115-87l-1-56c0-66 8-118 25-158 18-71 32-106 42-106 6 0 10 8 12 24l10 48c24 166 46 301 65 405 20 104 44 207 74 309l38 106a490 490 0 0 0 206 283c95 59 220 88 375 88 137 0 257-13 360-40 103-26 195-65 276-116l63-48c27-24 58-70 93-140l14-35c9-19 18-28 26-28 11 0 21 8 29 24 7 17 11 38 11 64-3 35-11 63-26 84l-20 39-9 25-3 10c0 12 25 24 74 36l21 7 25 10 26 9c80 23 140 34 179 34 13 0 24-2 31-5l34-10c15-4 31-10 49-19s26-17 26-25l-15-30c-10-18-18-43-22-73l-1-26 1-12 2-13-2-7-9-9-3-8-2-22c0-27 12-84 38-170 25-85 69-162 132-230l56-66c79-95 150-143 215-143 52 0 99 35 142 104s65 155 65 258c0 70-12 140-34 211s-51 125-88 162c-9 11-13 19-13 24 0 8 16 15 47 22 172 36 323 54 453 54 84 0 179-7 285-21l103-17c118-20 218-46 302-79l178-63 82-46 8-3 2-1c-9 0-16-3-21-9l-19-16-20-12-18-13-19-12-22-9-66-20-35-7-34-3c-5 0-15 6-31 16-16 11-28 16-36 16s-12-8-12-24l2-16 9-29c26-55 41-88 42-99l10-26c11-41 53-76 124-103 71-28 141-43 208-47l48-2c99 0 179 20 239 58 61 39 91 91 91 157 0 32-11 66-32 104-22 38-48 72-79 103l-15 16c-3 4-5 6-5 9 0 7 10 14 30 22l43 19 23 7c38 17 89 26 154 26 107 0 192-39 254-116 17-21 26-48 26-81l-1-24-71-368-98-394-33-167-25-83c-41-175-81-374-119-598-11-67-25-122-42-165-29-73-44-130-44-170 0-17 3-31 11-42l36-55 32-57c22-43 43-64 63-64 10 0 18 7 24 22 6 14 10 40 13 78s12 66 29 83l27 28c45 63 68 109 71 138zm-5400 51c25-45 89-90 190-136l150-62 355-181 135-65 65-35 83-56 10-2c16 0 25 16 25 47 0 24-5 47-16 70-10 24-21 38-33 43l-415 220-311 148-125 64-34 21-32 22c-12 13-25 19-38 19-10 0-16-6-17-18-2-13-3-27-3-42l4-32c1-10 3-19 7-25zM8184 3951c9-23 20-38 33-46 13-7 28-13 43-18l370-127 126-48c15-7 93-37 235-88l25-14c14-9 27-15 38-17 11-3 26-11 45-24s38-19 56-19c17 0 30 3 37 10 7 6 10 19 10 38l-1 8-9 45c-7 22-25 43-54 62-30 19-66 35-108 47l-144 47-166 61-247 85-165 58-25 11-86 28-13 2c-5 0-7-1-7-3l6-83 1-15zM7373 908l-1-5 1-3 2-9 1-9-5-25c0-15 10-37 31-66a370 370 0 0 1 264-129c55 1 117 13 186 34l80 25c42 11 78 19 108 22 31 0 47 9 47 27l-4 30-8 30-10 30c-7 13-17 24-30 32l-63 35-63 40c-60 35-128 67-204 98l-25 6h-11l-10-1-28-2-41 4c-10 0-15-4-15-13 0-11 9-23 27-37l25-22 58-39c77-43 138-78 180-104l-2 2-13-3-29-7-47-14-40-7-37-7-37-7-50-4c-49 0-99 18-150 55l-20 14c-30 20-51 30-62 30l-5-1zm-288 718c9-20 14-47 14-80l-3-42c-8-41-16-71-25-89-10-19-27-28-53-28-23 0-53 11-89 33-36 21-54 41-54 59l8 16 23 17 31 18c100 58 149 90 148 96zm-35 1559c0-8-6-17-17-26l-12-13c-4-4-10-15-20-34-26-35-42-59-49-71-7-13-17-28-31-47l-15-19-8-12c-4-5-10-12-15-22-6-11-12-18-18-22-6-5-14-7-23-7-25 0-60 20-106 58l-25 23c-31 25-47 46-49 61 0 10 12 21 36 32l35 13 25 8c74 36 171 62 292 78zm-51-1453-122-66c-62-39-93-88-93-145 0-49 13-96 40-140 26-45 62-81 108-109 46-29 88-43 126-43 33 0 59 17 77 51 19 34 28 78 28 132 0 104-13 190-39 259s-75 146-148 231c-23 29-66 64-128 106s-107 70-135 83c-28 14-53 21-73 21l-24-2c-6 0-28 9-65 27-36 19-60 28-69 28-10 0-14-7-14-21 0-24 29-51 87-80l37-16 41-28 40-28 81-56 56-33 123-99c44-33 66-57 66-72zm-1571 471c5-5 12-7 21-7 25 0 64 19 117 56l81 58c7 4 13 6 19 6 14 0 31-8 50-26 19-17 50-58 94-122 19-28 36-42 51-42 6 0 17 4 31 11l88 77 19 14 37 29 29 36c10 13 16 26 18 40 0 15-7 28-22 41-14 13-30 25-47 37-16 11-32 24-46 37-15 14-28 20-41 20-9 0-24-5-45-17l-100-68-12-10-32-25-13-7v1c1 2-2 7-10 17l-110 134c-22 29-42 42-60 40-11 0-23-4-34-11l-127-75c-36-16-57-29-64-36-7-8-10-18-10-30 0-8 4-18 13-31l20-33 25-30 42-69 18-15zm-48-674c8 0 12 3 12 9 0 8-6 23-20 45l-8 13c-7 20-10 34-10 42 0 15 7 30 23 43 16 14 40 20 73 20 27 0 54-7 81-20 26-14 42-28 48-42l5-20 7-66c1-20 7-46 16-78 10-33 20-49 31-49 20 0 29 27 29 79l-3 26-6 26-5 27-1 12c0 24 16 36 49 36 39 0 74-8 105-24 30-16 46-33 46-52l-4-42-5-35-2-35c0-36 6-64 18-83 12-18 22-28 29-28 25 0 37 61 37 183 0 43-7 85-21 126s-32 66-54 76c-15 4-29 12-41 23-20 15-33 24-40 25l-25 5-47 7-25 2-26-3-16-1c-13 0-25 4-36 13-48 38-108 60-178 66-19 0-34-3-45-9l-26-10c-34-18-52-49-52-92l11-108c0-19 9-42 26-68s34-39 50-39zm-410-379 79-29 578-234 179-73 57-26 43-24 25-10 11-2c16 0 24 10 24 29s-4 43-13 72c-10 30-20 48-31 55l-20 8-52 13-186 84-35 16-259 101-73 31-161 65-68 22c-32 10-60 23-85 40-8 8-16 12-24 12-12 0-19-15-19-46 0-21 4-43 10-65s13-35 20-39zm-364 2093 9 1c19 0 52-19 98-58l72-61 30-26c21-19 31-40 31-63 0-47-19-97-58-150s-76-80-110-80c-43 0-93 30-151 91a778 778 0 0 0-141 205l-1 4c0 9 16 24 50 45 33 21 72 42 116 63l55 29zm-107-1146c0 31-23 65-68 100l-17 14-26 30c-42 47-71 70-86 70-4 0-7-1-10-5-12-20-27-34-46-42-58-25-97-44-117-57s-30-26-30-40l6-20c63-111 109-167 139-167l17 3 28 17 28 15 30 17 62 42c12 12 23 18 32 18l4-1 28-5c11 0 19 2 25 7l-1-9c1-25 13-49 34-74l32-38 27-32 13-18c16-21 30-32 40-32 5 0 10 2 15 5l38 27c13 14 25 24 36 29l20 23 34 41c24 32 36 53 36 64 0 5-1 8-3 8-2-1-6 2-10 7-13 32-23 48-30 50l-10 5c-4 1-18 13-41 35s-41 33-55 33c-9 0-19-5-29-15-11-11-36-26-74-48l-39-24c-12-7-23-18-32-33zm-523 2122c36-25 106-50 209-73l43-12 165-53 414-153 82-28c15-6 27-17 36-32 2-4 8-6 15-6l19 3 26-6c11 0 17 9 17 27 0 12-4 33-11 64-8 31-20 50-36 57l-448 174-233 77-79 26-78 26-72 28-37 12-42 9c-11 0-17-10-17-30 0-19 4-41 11-67 8-26 13-40 16-43zm-562-466c12 25 40 54 84 87 44 34 72 57 84 70 12 12 18 25 18 38 0 19-12 39-35 61l-27 24c-6 4-11 9-14 13l-45 45-35 6c-7-1-15-4-24-10l-50-38-49-31c-51-27-77-54-77-79 0-26 23-64 68-114 45-51 75-76 92-76 5 0 8 1 10 4zm-450 88c4-5 11-7 20-7 14 0 28 5 43 15 14 11 38 29 70 56l44 29 23 11 25 2c31 3 47 10 47 22l-5 21-9 19c-7 15-16 26-28 33l-30 24-52 57c-23 25-46 38-68 38-36 0-83-25-142-76l-35-27c-14-14-21-25-21-33 0-7 3-16 10-27l17-24 14-24c31-56 56-92 77-109zM1624 2726c27 0 66 23 118 70s78 89 78 127c0 34-16 67-49 98-33 32-51 49-56 52-4 2-8 3-13 3-13 0-29-8-50-25l-38-30-41-20c-21-9-38-20-52-33-13-14-20-26-20-37 0-16 17-51 50-104l49-88c5-9 13-13 24-13zm-902-387c6-7 25-18 58-32l36-11c18-6 58-24 119-53l154-64 437-168 30-13 348-134 107-34 73-30 18-2c14 0 21 12 21 37l-6 40-8 25c-16 44-61 74-134 92l-58 17-413 159-311 127-251 86c-59 22-130 56-211 103-7 4-13 6-18 6-11 0-17-14-17-43 0-16 3-37 9-62 5-25 11-40 17-46zm2002 865v-21a722 722 0 0 0-93-333l-25-44-24-44c-6-11-9-22-9-33l8-63 34-131c5-15 12-22 20-22 7 0 16 6 28 16 11 11 22 25 31 43l49 101c14 25 57 37 130 37 72 0 129-19 171-59 41-40 80-114 114-221 3-15 13-38 32-70 19-31 35-47 47-47 7 0 14 6 19 19 6 13 17 49 33 107l24 151 38 189c17 186 76 333 176 444a498 498 0 0 0 385 165l160-5c176-12 264-35 264-67l-8-37-21-59-9-29-3-21 3-37 33-120 45-115a857 857 0 0 1 238-286c53-38 97-57 133-57 69 0 126 52 171 155a527 527 0 0 1 47 229c0 46-9 88-27 128l-21 49c-14 29-21 46-21 53l-11 26-47 71-18 26-1 9c0 11 11 19 34 23l45 7c93 23 184 34 275 34 95 0 195-12 301-36 105-24 193-56 264-98l148-90c26-15 49-22 69-22 15 0 31 3 48 11 16 7 64 36 144 84 80 49 140 73 181 73 33 1 71-18 112-54l41-35 22-23 40-47c18-25 29-43 32-55 3-11 8-21 13-30l11-19 73-95 39-46 42-43 38-34c31-28 60-41 89-41 20 0 51 20 94 60l87 93a707 707 0 0 0 489 220c21 0 42-3 64-7l135-26c99-23 170-64 212-123 9-14 14-31 14-53 0-40-11-106-33-200l-11-49-32-207-75-579-30-197c-10-76-15-140-15-193 0-52 3-91 10-118l36-104 11-23c3-10 9-14 15-14 16 0 29 40 39 120l6 59 17 199c8 86 21 177 38 272s31 205 43 330a5236 5236 0 0 0 77 531c18 95 48 171 90 229 42 59 97 101 165 128 69 28 140 41 213 41 40 0 69-8 86-23 16-16 25-41 25-75l-2-38-139-744-95-443-31-199-13-153c-4-35-13-66-27-93-26-48-39-90-39-127-1-12 1-24 5-36 4-13 14-36 30-71l18-31c25-49 43-74 56-74 10 0 20 11 29 31l31 76c4 8 25 39 65 93 39 54 59 94 59 119 0 42-27 93-82 155-12 14-19 24-21 29l-2 17 2 23 15 53c40 179 71 338 95 477s51 268 81 389c29 120 46 217 51 290l2 86-1 21-6 128c-5 90-19 165-42 223-22 59-45 98-70 118-24 19-63 29-115 29a497 497 0 0 1-491-307c0 15-21 45-63 90l-24 26c-44 47-85 79-121 96-36 16-86 31-148 45-63 14-113 21-151 21-30 0-60-3-89-10-30-6-59-10-88-11l-33-12-20-4c-4 0-6 2-7 5l-22 62c-9 23-19 39-29 48-11 9-28 14-52 14l-41-4-83-20-43-6c-95-10-144-23-147-40l-6 4v3c2-1 3-3 2-5 0-2 2-5 6-9l-3 3c-2 0-3-6-3-16l-5 3c-2 0-2 1-2 3l1 10c0 6-2 9-5 9-10 0-20-3-31-8l-23-7-49-17-50-19c-44-17-73-51-89-101l-5 5c-4 3-34 37-91 103l-27 27-92 75c-45 36-87 54-126 54-17 1-33-2-48-8-16-6-41-19-75-37l-32-15-31-17-32-20-37-21-42-18-13-10-30-24c-10-4-18-6-24-6-11 0-24 5-40 14-15 10-47 27-94 52-9 5-17 7-22 7-4 0-8-1-10-3l-7 14c-3 6-8 8-14 8l-1-4-5-28c-5 7-7 14-7 22 0 9-1 14-4 18-2 4-8 7-19 11l-87 38-31 8-73 26-52 17-46 24c-54 24-139 36-256 36l-100 9-33-1-84-19-43-7-152-30-133-39-25-4c-24 0-46 4-66 11s-45 12-73 16l-43 10-82 27-43 10-127 32-44 9c-113 11-184 17-211 17-40 0-76-4-109-13l-99-26-46-16-25-14-24-13-31-18c-132-78-223-242-274-493l-40-229-14-87-11-49c-3-15-6-23-9-23-4 0-9 4-13 10l-49 97-19 29-21 29-23 25c-61 59-116 93-167 102l-20 4-38 1c-7 0-11 4-11 14l-3 22v13l-3 36c-3 39-7 67-15 83-7 17-10 32-10 45v7l3 37 3 39c0 25-23 76-70 154-46 77-96 144-147 199-52 55-115 98-187 130l-25 17-30 16-31 13-48 20-22 12-21 10-20 6-31 11c-2 10-9 15-21 15l-24-4-34 12-60 31-16 7-15 2-24-1c-43 0-115 12-215 34l-59 12-161 12-7 1-8 3-7 1-18 1-19 7-14 4-5 1c-2 0-11-3-27-10l-28-6-47-2-31-5-35-1c-8 0-13 2-18 4-5 3-10 4-17 4l-36-5-29-10-24-6c-155-19-295-53-421-100-126-46-230-103-311-170-98-76-154-118-168-126l-35-26-34-27-69-57c-8-6-17-15-27-30l-21-32-40-44c-26-26-38-44-38-52 0-18 12-26 36-26 23 0 54 9 93 27l28 14 27 17 78 50c88 64 200 125 336 182a1659 1659 0 0 0 451 130c35 4 71 11 108 20 55 15 104 24 146 26l184 7c89 0 164-5 227-14l127-21 92-18c246-52 431-116 558-192 126-77 204-168 233-274z" />
        </g>
    </g>
</svg>