<svg xmlns="http://www.w3.org/2000/svg" xml:space="preserve" fill-rule="evenodd" clip-rule="evenodd"
    image-rendering="optimizeQuality" shape-rendering="geometricPrecision" text-rendering="geometricPrecision"
    viewBox="0 0 731 731" fill="#0f755b">
    <defs />
    <g id="Layer_x0020_1">
        <path id="_2463769801696"
            d="m495 119 4 1a274 274 0 0 0 19-3c1-1 2-5 1-12 0-6-2-11-4-14s-6-5-12-5c-6-1-10 0-13 3v14l5 16zm-34 75h11a306 306 0 0 0 11-1c3-2 3-10 1-23h13l7-1c2-1 2-5 2-12s-1-12-3-15l-2-2c-2-2-6-4-11-4l-12 2v11l1 13-12-2c-5 1-8 1-10 3l1 15 3 16z"
            class="fil0" />
        <path id="_2463769803040"
            d="M615 179c-1-7-4-10-10-10l-9 3c-3 2-7 3-10 3-4 1-8-1-13-4-4-2-6-5-7-7l-1-5c1-7 4-19 10-35 8-19 15-29 21-30 9-1 17 2 25 9 8 8 13 21 15 37 4 33-11 69-42 105v1h-1c-6 7-14 14-25 22l-23 14c-19 26-40 41-65 45h-3c-10 1-20-1-25-6-5-6-11-9-18-8-13 2-26 11-39 27-2 3-3 4-5 4-1 0-2-1-2-3l1-5c23-53 45-81 65-83 5-1 13 1 17 4 7 2 14 2 22-1-2-2-2-4-3-7-1-10 4-27 15-51 12-24 22-36 30-37 9-1 16 1 22 7 4 6 7 11 8 18 2 20 0 39-7 55 11-4 22-11 31-21 17-20 27-36 26-41zm-63 39c0-4-3-7-8-11-6-4-11-5-16-5-7 1-13 5-18 12s-7 12-7 17c1 9 10 12 27 10h6l10-10c4-6 6-10 6-13zm123 184c5-5 4-10-1-14l-8-3-9-5c-3-2-6-6-7-12v-10l3-4c5-5 15-11 31-19 19-8 31-11 36-7 7 6 11 13 11 24 1 11-4 24-14 37-20 26-56 42-103 47h-1c-9 1-20 0-34-2-12-1-20-3-26-5-31 6-57 2-78-13l-2-1c-8-7-14-15-14-22 1-8-2-14-8-19-10-7-26-10-46-7h-7v-4a10 10 0 0 1 4-3c54-22 89-28 106-15 4 3 8 9 9 15 3 6 9 11 16 14l3-7c7-8 22-17 46-26 25-10 41-12 48-7s10 12 10 21c0 6-2 12-6 18-13 16-27 28-43 35 11 5 23 7 37 6 26-3 44-7 47-12zm-72-15c2-3 2-7 1-13-1-7-4-12-8-15-6-4-13-5-22-3-8 1-13 3-15 7-6 7-2 16 12 26l4 3h14c7-1 12-2 14-5zm-52 230c7-1 10-5 9-11l-3-8-3-10c0-4 1-9 4-13s5-6 8-7l5-1c7 0 19 4 34 10 20 8 30 15 31 21 0 9-3 17-10 25-8 8-20 13-37 14-33 4-69-11-104-42h-1v-1c-7-6-15-14-22-26-7-9-12-17-14-22-26-19-41-41-44-66l-1-2c0-11 2-21 7-25 6-6 8-12 8-19-2-13-10-26-27-38-2-3-4-4-4-6 0-1 1-2 3-2l5 1c53 24 81 46 83 66 1 5-1 12-4 17-3 7-3 14 0 21l8-2c10-1 27 4 50 16 24 11 37 21 38 30 0 9-2 16-9 21-5 5-11 7-17 8-21 2-39 0-55-7 4 11 11 22 21 31 20 17 35 27 41 27zm-39-64c4 0 7-3 11-8s5-11 5-16c-1-6-5-12-12-18-7-5-12-7-16-7-9 1-13 10-11 27l1 5c1 3 4 7 9 11 6 4 10 7 13 6zM320 674c6 4 11 4 15-1l4-8 4-9c3-3 7-5 12-6h11l4 3c5 5 10 16 17 31 8 19 11 32 7 37-6 7-14 10-24 10-12 0-24-5-37-15-26-21-41-57-44-104v-1c-1-9 0-20 2-34 2-12 4-20 7-25-6-32-1-58 14-78l2-2c6-8 15-14 22-13 8 0 14-3 19-8 8-11 10-26 8-46-1-4 0-6 1-7h3a9 9 0 0 1 3 4c21 55 25 90 13 106-4 4-10 8-15 9-7 3-12 8-15 16l7 3c8 7 16 22 25 47 8 25 10 41 5 48-6 7-12 10-21 9-7 0-13-3-18-7-16-13-27-27-34-43-5 10-8 23-7 36 2 26 6 45 10 48zm18-72c2 2 7 3 13 2 7-2 11-4 15-8 4-5 5-12 4-21s-3-14-7-17c-7-5-16-2-26 12l-4 4v14c1 7 2 12 5 14zm-224-53c0 7 4 10 10 10l9-3c3-2 6-3 10-3 3-1 8 1 12 4 4 2 6 5 7 7l1 5c0 8-4 19-10 35-8 19-15 29-22 30-9 1-17-2-24-10-8-8-13-20-15-37-3-33 12-69 44-104v-1l26-22c10-7 18-11 23-13 19-26 41-41 66-44h2c11-1 21 1 26 6 5 6 11 9 18 8 13-1 26-10 39-26 2-3 4-4 5-4s2 1 2 3v5c-25 53-47 80-67 83-5 0-13-2-17-5-7-3-14-2-22 0l3 8c1 10-5 27-16 50-12 24-22 36-31 37s-16-2-21-8c-5-5-7-11-8-18-2-20 0-38 7-54-11 3-21 10-31 20-17 20-27 35-26 41zm63-38c1 3 3 7 8 10 6 4 11 6 16 6 7-1 13-5 18-12s8-12 7-16c-1-10-10-13-27-12l-5 1-10 10c-5 5-7 10-7 13zM57 319c-4 6-4 11 1 14l8 4 9 5c3 3 6 7 7 12s1 8-1 11l-3 4c-5 5-15 10-31 17-19 8-31 10-36 6-8-5-11-13-11-24s5-23 15-36c21-26 57-41 104-44h1c10-1 21 0 34 2 12 2 21 4 26 7 32-5 58 0 78 15l2 1c8 7 13 15 13 23s2 14 8 18c10 8 25 11 45 9h7v4a10 10 0 0 1-4 3c-55 21-90 25-106 12-4-3-8-10-9-15-3-6-8-11-15-15l-4 7c-6 8-22 16-46 25-26 9-42 10-49 5-6-6-9-12-9-21 1-7 3-13 7-18 13-16 28-27 43-34-10-5-22-8-36-7-26 2-44 6-48 10zm73 18c-3 3-3 7-2 13 1 7 4 12 8 15 5 4 12 5 21 4 8-1 13-3 16-6 6-8 2-17-11-27l-5-3c-3-1-7-2-14-1s-11 2-13 5zM408 57c-6-5-10-4-14 1l-4 8c-1 4-3 7-5 9-2 3-6 5-12 7-4 1-7 0-10-1l-4-3c-5-5-11-15-18-31-8-19-11-31-7-36 6-7 14-11 24-11 12 0 24 5 37 15 26 21 42 56 45 103v1c1 10 0 21-2 34l-6 26c6 32 1 58-14 78l-1 2c-7 8-15 14-23 13-7 0-14 3-18 8-8 11-11 26-8 46v7h-4a10 10 0 0 1-3-4c-22-54-26-90-14-106 4-4 10-8 15-9 7-3 12-8 15-16-2 0-5-1-7-3-8-6-17-22-25-46-9-25-11-41-6-48s12-10 21-10c6 1 12 3 17 7 17 13 28 27 35 43 5-11 8-23 7-37-3-26-7-44-11-47zm-17 72c-2-2-7-3-13-1-6 1-11 4-15 8-4 5-5 12-4 21 2 8 4 13 7 16 8 6 17 2 27-12l3-4v-14c0-7-2-12-5-14zm-215-11c-7 1-10 5-9 11l3 8 3 10c1 4-1 8-4 13-2 4-4 6-7 7l-5 1c-7 0-19-3-35-9-19-8-29-15-30-21-1-9 2-17 9-25 8-8 20-13 37-15 33-4 69 10 105 40v1h1c7 6 14 15 22 26 7 9 12 17 14 22 27 19 42 40 46 65v2c1 11-1 21-6 26-6 5-8 11-7 18 1 13 10 26 27 38l4 5c0 2-1 3-3 3l-5-1c-53-23-82-44-84-65-1-5 1-12 4-17 2-6 2-14-1-21l-7 2c-11 2-27-3-51-14-24-12-37-21-38-30s1-16 8-21c5-5 11-8 17-8 21-3 39-1 55 5-4-11-11-21-21-30-20-17-36-27-42-26zm40 63c-3 0-7 3-10 8-4 6-6 11-5 16 1 7 5 13 12 18s12 7 16 6c10-1 13-10 11-27l-1-5-10-10c-5-5-10-7-13-6z"
            class="fil0" />
        <path id="_2463769805872"
            d="m629 274 2 4a348 348 0 0 0 16 11c2 0 5-3 9-8s6-9 7-13c0-4-2-8-5-12-4-5-8-7-12-7-1 0-4 3-9 11l-8 14zm-76 32 8 8a407 407 0 0 0 8 6c4 1 10-5 17-16l10 9c2 3 4 4 6 4s5-2 10-7c4-5 6-9 7-13v-3c0-3-2-7-5-10-4-5-8-7-11-7l-7 7-8 11c-1-3-4-6-8-9-3-4-6-5-8-6-1 0-5 4-10 12l-9 14z"
            class="fil0" />
        <path id="_2463769806064"
            d="M612 498a342 342 0 0 0 1 22c1 2 5 3 12 2 6 0 11-1 14-4 3-2 5-6 6-12 0-5-1-10-3-13h-14c-9 2-14 3-16 5zm-75-35-1 11a418 418 0 0 0 1 11c2 3 10 3 24 1v21c2 1 6 2 13 2 6 0 11-1 14-3l2-2c3-2 4-6 4-11 1-6 0-10-2-12l-10-1-13 2 1-12-2-11-15 1-16 3z"
            class="fil0" />
        <path id="_2463769805728"
            d="m446 633-3 2a285 285 0 0 0-12 15c0 2 2 5 7 10 5 4 10 7 13 7 4 0 8-1 13-5 4-3 7-7 7-11 0-1-3-5-10-10l-15-8zm-28-77a292 292 0 0 0-15 16c-1 3 5 9 15 17l-9 9c-3 2-4 4-4 6-1 2 2 5 7 10 4 5 9 7 12 8h3c3 0 7-1 11-5 4-3 6-7 7-10l-8-7-10-9 10-7 6-9-12-10-13-9z"
            class="fil0" />
        <path id="_2463769807696"
            d="m236 613-4-1a330 330 0 0 0-19 2c-1 2-2 6-1 12 0 7 1 12 4 14 2 3 6 5 12 6 5 1 10 0 13-3 1-1 1-5-1-14-1-9-3-14-4-16zm34-75-11-1a307 307 0 0 0-11 1c-3 3-3 10-1 24h-13l-7 1c-2 1-3 5-2 12 0 7 1 11 3 15l1 2 12 4c5 0 9-1 12-3v-10l-1-13 12 1 10-2c1-1 0-6-1-15l-3-16z"
            class="fil0" />
        <path id="_2463769807648"
            d="m100 451-2-4a366 366 0 0 0-15-11c-2 0-5 2-10 7-4 5-6 10-7 13 0 4 1 8 5 13 3 4 7 7 12 7 1 0 4-3 9-11l8-14zm77-30-8-8a286 286 0 0 0-8-7c-4 0-9 5-17 16l-9-9-6-4c-2-1-6 2-11 7-4 5-7 9-7 13l-1 2c0 3 2 7 6 11 3 4 7 6 10 7l7-7 8-11 8 10 9 5 10-11 9-14z"
            class="fil0" />
        <path id="_2463769808032"
            d="m116 241 1-4a405 405 0 0 0-3-18c-1-2-5-2-12-2-6 1-11 2-14 5-3 2-4 6-5 12-1 5 0 10 3 13 1 1 6 1 14-1 9-2 14-3 16-5zm76 33v-11a394 394 0 0 0-1-11c-2-3-10-3-24-1v-13l-1-7c-1-1-5-2-12-2-7 1-12 2-15 4l-2 1c-2 3-3 7-3 12-1 6 0 9 2 12h10l14-2c-2 3-2 7-2 12 1 5 1 9 3 10 0 1 6 1 15-1l16-3z"
            class="fil0" />
        <path id="_2463769740640"
            d="m275 102 3-2a349 349 0 0 0 11-15c0-2-2-5-7-10-6-4-10-6-14-6-3-1-7 1-12 5-4 3-7 7-7 12l11 9c7 4 12 7 15 7zm31 77 8-8a409 409 0 0 0 7-9c0-3-6-9-17-17l9-9 4-6c1-2-2-5-7-10-5-4-9-7-13-8h-3c-3 0-6 2-10 6l-7 10 8 7 10 8-9 8-5 9 11 10 14 9z"
            class="fil0" />
    </g>
</svg>